# xmcd
#
# Track frame offsets:
#	150
#	13577
#	32176
#	46350
#	59926
#	83550
#	112200
#	134250
#	149625
#	174300
#	195513
#	211800
#	232877
#	253500
#	278850
#	299207
#	311554
#
# Disc length: 4324 seconds
#
# Revision: 1
# Processed by: cddbd v1.5.2PL0 Copyright (c) Steve Scherf et al.
# Submitted via: audiograbber 1.83.01
#
DISCID=0610e211
DTITLE=Soulfamily - 25 Years
DYEAR=2013
DGENRE=Soul
TTITLE0=Soulshake
TTITLE1=I heard it through the grapevine
TTITLE2=Ain't no mountain high enough
TTITLE3=Take me to the river
TTITLE4=Rock steady
TTITLE5=Drift away
TTITLE6=Motown medley
TTITLE7=Wild night
TTITLE8=Mustang Sally
TTITLE9=Valerie
TTITLE10=Eastside shuffle
TTITLE11=At last
TTITLE12=Ain't nobody
TTITLE13=Love the one you're with
TTITLE14=Addicted to love
TTITLE15=Guilty
TTITLE16=Built for comfort (Bonus Track)
EXTD=
EXTT0=
EXTT1=
EXTT2=
EXTT3=
EXTT4=
EXTT5=
EXTT6=
EXTT7=
EXTT8=
EXTT9=
EXTT10=
EXTT11=
EXTT12=
EXTT13=
EXTT14=
EXTT15=
EXTT16=
PLAYORDER=
